<?xml version="1.0" encoding="UTF-8" standalone="no"?>
<svg
   xmlns:dc="http://purl.org/dc/elements/1.1/"
   xmlns:cc="http://creativecommons.org/ns#"
   xmlns:rdf="http://www.w3.org/1999/02/22-rdf-syntax-ns#"
   xmlns:svg="http://www.w3.org/2000/svg"
   xmlns="http://www.w3.org/2000/svg"
   xmlns:sodipodi="http://sodipodi.sourceforge.net/DTD/sodipodi-0.dtd"
   xmlns:inkscape="http://www.inkscape.org/namespaces/inkscape"
   width="1000"
   height="1000"
   viewBox="-50 -30 99.999996 100"
   id="svg2"
   version="1.1"
   inkscape:version="0.48.4 r9939"
   sodipodi:docname="66.svg">
  <metadata
     id="metadata14">
    <rdf:RDF>
      <cc:Work
         rdf:about="">
        <dc:format>image/svg+xml</dc:format>
        <dc:type
           rdf:resource="http://purl.org/dc/dcmitype/StillImage" />
        <dc:title></dc:title>
      </cc:Work>
    </rdf:RDF>
  </metadata>
  <defs
     id="defs12" />
  <sodipodi:namedview
     pagecolor="#ffffff"
     bordercolor="#666666"
     borderopacity="1"
     objecttolerance="10"
     gridtolerance="10"
     guidetolerance="10"
     inkscape:pageopacity="0"
     inkscape:pageshadow="2"
     inkscape:window-width="1280"
     inkscape:window-height="1001"
     id="namedview10"
     showgrid="false"
     fit-margin-top="0"
     fit-margin-left="0"
     fit-margin-right="0"
     fit-margin-bottom="0"
     inkscape:zoom="0.55997113"
     inkscape:cx="708.30919"
     inkscape:cy="429.95188"
     inkscape:window-x="-8"
     inkscape:window-y="-8"
     inkscape:window-maximized="1"
     inkscape:current-layer="svg2"
     showguides="true"
     inkscape:guide-bbox="true" />
  <path
     inkscape:connector-curvature="0"
     id="path3124"
     d="M -9.6157635e-6,-30 C 27.614237,-30 49.999999,-7.61426 49.999999,19.99999 49.999999,47.614232 27.614237,70.000001 -9.6157635e-6,70.000001 -27.614242,70.000001 -50.000002,47.614232 -50.000002,19.99999 -50.000002,-7.61426 -27.614242,-30 -9.6157635e-6,-30 z"
     style="fill:#d40000;fill-opacity:1;stroke:none"
     sodipodi:nodetypes="sssss" />
  <path
     inkscape:connector-curvature="0"
     id="path3124-1"
     d="M -1.0615764e-5,60 C 22.091384,60 39.999999,42.091407 39.999999,20.00001 39.999999,-2.09138 22.091386,-20 -1.1615764e-5,-20 -22.091395,-20 -40.000002,-2.09138 -40.000002,20.00001 -40.000002,42.091407 -22.091395,60 -1.0615764e-5,60 z"
     style="fill:#ffffff;fill-opacity:1;stroke:none"
     sodipodi:nodetypes="sssss" />
  <path
     inkscape:connector-curvature="0"
     d="m 13.745426,7.79925 c 0,4.61724 -3.73482,7.69419 -9.2325326,7.69419 l -7.462196,0 0,-15.60753 7.462196,0 c 5.4977126,0 9.2325326,3.07695 9.2325326,7.91334 m 11.21319,0 c 0,-7.03453 -3.738281,-13.1901 -9.672916,-16.48815 -3.518992,-1.97705 -6.3766666,-2.63658 -11.2113866,-2.63658 l -19.0743154,0 0,62.651081 12.0506994,0 0,-24.619101 7.023616,0 c 4.83472,0 7.6923946,-0.44024 11.2113866,-2.4191 5.934635,-3.29624 9.672916,-9.89219 9.672916,-16.48815"
     style="fill:#000000;fill-opacity:1;fill-rule:evenodd;stroke:#ffffff;stroke-width:2;stroke-miterlimit:4;stroke-opacity:1;stroke-dasharray:none"
     id="path3565"
     sodipodi:nodetypes="csccscccsccccscc" />
  <path
     sodipodi:nodetypes="ccccc"
     inkscape:connector-curvature="0"
     id="path3067"
     d="m -35.355342,-8.28427 7.071067,-7.07107 63.639612,63.639613 -7.071071,7.071067 z"
     style="color:#000000;fill:#d40000;fill-opacity:1;fill-rule:nonzero;stroke:none;stroke-width:1;marker:none;visibility:visible;display:inline;overflow:visible;enable-background:accumulate" />
</svg>
