<?xml version="1.0" encoding="UTF-8" standalone="no"?>
<!-- Created with Inkscape (http://www.inkscape.org/) -->
<svg
   xmlns:svg="http://www.w3.org/2000/svg"
   xmlns="http://www.w3.org/2000/svg"
   version="1.0"
   width="744.1875"
   height="744.15002"
   id="svg2"
   xml:space="preserve"><defs
     id="defs5"><clipPath
       id="clipPath19"><path
         d="M 0.492188,0 L 5953.0022,0 L 5953.0022,5952.75 L 0.492188,5952.75 L 0.492188,0 z"
         id="path21" /></clipPath></defs><g
     transform="matrix(1.25,0,0,-1.25,0,744.15)"
     id="g11"><g
       transform="scale(0.1,0.1)"
       id="g13"><g
         id="g15"><g
           clip-path="url(#clipPath19)"
           id="g17"><path
             d="M 5949.71,2976.37 C 5949.71,4618.22 4618.72,5949.21 2976.87,5949.21 C 1335.02,5949.21 4.03125,4618.22 4.03125,2976.37 C 4.03125,1334.53 1335.02,3.53125 2976.87,3.53125 C 4618.72,3.53125 5949.71,1334.53 5949.71,2976.37"
             id="path23"
             style="fill:#e23828;fill-opacity:1;fill-rule:nonzero;stroke:none" /><path
             d="M 5949.71,2976.37 C 5949.71,4618.22 4618.72,5949.21 2976.87,5949.21 C 1335.02,5949.21 4.03125,4618.22 4.03125,2976.37 C 4.03125,1334.53 1335.02,3.53125 2976.87,3.53125 C 4618.72,3.53125 5949.71,1334.53 5949.71,2976.37 z"
             id="path25"
             style="fill:none;stroke:#e23828;stroke-width:7.07818985;stroke-linecap:round;stroke-linejoin:round;stroke-miterlimit:500;stroke-dasharray:none;stroke-opacity:1" /><path
             d="M 4679.36,1536.66 C 5427.97,2421.91 5373.24,3733.17 4553.46,4552.96 C 3733.66,5372.75 2422.4,5427.48 1537.15,4678.85 L 4679.36,1536.66"
             id="path27"
             style="fill:#ffffff;fill-opacity:1;fill-rule:nonzero;stroke:none" /><path
             d="M 4679.36,1536.66 C 5427.97,2421.91 5373.24,3733.17 4553.46,4552.96 C 3733.66,5372.75 2422.4,5427.48 1537.15,4678.85 L 4679.36,1536.66 z"
             id="path29"
             style="fill:none;stroke:#ffffff;stroke-width:7.07818985;stroke-linecap:round;stroke-linejoin:round;stroke-miterlimit:500;stroke-dasharray:none;stroke-opacity:1" /><path
             d="M 4416.59,1273.89 L 1274.38,4416.09 C 525.762,3530.84 580.492,2219.58 1400.28,1399.79 C 2220.07,580 3531.33,525.262 4416.59,1273.89"
             id="path31"
             style="fill:#ffffff;fill-opacity:1;fill-rule:nonzero;stroke:none" /><path
             d="M 4416.59,1273.89 L 1274.38,4416.09 C 525.762,3530.84 580.492,2219.58 1400.28,1399.79 C 2220.07,580 3531.33,525.262 4416.59,1273.89 z"
             id="path33"
             style="fill:none;stroke:#ffffff;stroke-width:7.07818985;stroke-linecap:round;stroke-linejoin:round;stroke-miterlimit:500;stroke-dasharray:none;stroke-opacity:1" /><path
             d="M 3190.88,4134.13 C 3151.13,4198.68 3095.46,4251.93 3029.2,4288.76 C 2912.94,4353.36 2767.54,4329.75 2677.7,4231.67 C 2558.24,4101.24 2491.97,3930.79 2491.97,3753.92 L 2491.97,3724.03 L 3232.62,2983.38 L 3232.62,3579.08 L 3345.7,3395.42 L 3345.7,2870.3 L 3520.04,2695.97 L 3601.18,2695.97 L 3601.18,3467.77 L 3190.88,4134.13"
             id="path35"
             style="fill:#000000;fill-opacity:1;fill-rule:nonzero;stroke:none" /><path
             d="M 3190.88,4134.13 C 3151.13,4198.68 3095.46,4251.93 3029.2,4288.76 C 2912.94,4353.36 2767.54,4329.75 2677.7,4231.67 C 2558.24,4101.24 2491.97,3930.79 2491.97,3753.92 L 2491.97,3724.03 L 3232.62,2983.38 L 3232.62,3579.08 L 3345.7,3395.42 L 3345.7,2870.3 L 3520.04,2695.97 L 3601.18,2695.97 L 3601.18,3467.77 L 3190.88,4134.13 z"
             id="path37"
             style="fill:none;stroke:#000000;stroke-width:7.07818985;stroke-linecap:round;stroke-linejoin:round;stroke-miterlimit:500;stroke-dasharray:none;stroke-opacity:1" /><path
             d="M 2331.69,3358.79 L 1968.26,2925.6 L 2164.25,2763.69 L 2491.97,3160.37 L 2491.97,2833.24 L 2061.85,1233.46 L 2456.59,1127.33 L 2834.75,2533.79 L 2834.75,2006.81 L 3346.95,1140.3 L 3698.84,1348.31 L 3232.62,2137.02 L 3232.62,2457.86 L 2331.69,3358.79"
             id="path39"
             style="fill:#000000;fill-opacity:1;fill-rule:nonzero;stroke:none" /><path
             d="M 2331.69,3358.79 L 1968.26,2925.6 L 2164.25,2763.69 L 2491.97,3160.37 L 2491.97,2833.24 L 2061.85,1233.46 L 2456.59,1127.33 L 2834.75,2533.79 L 2834.75,2006.81 L 3346.95,1140.3 L 3698.84,1348.31 L 3232.62,2137.02 L 3232.62,2457.86 L 2331.69,3358.79 z"
             id="path41"
             style="fill:none;stroke:#000000;stroke-width:7.07818985;stroke-linecap:round;stroke-linejoin:round;stroke-miterlimit:500;stroke-dasharray:none;stroke-opacity:1" /><path
             d="M 3132.52,4719.93 C 3132.52,4889.24 2995.28,5026.5 2825.95,5026.5 C 2656.64,5026.5 2519.38,4889.24 2519.38,4719.93 C 2519.38,4550.61 2656.64,4413.35 2825.95,4413.35 C 2995.28,4413.35 3132.52,4550.61 3132.52,4719.93"
             id="path43"
             style="fill:#000000;fill-opacity:1;fill-rule:nonzero;stroke:none" /><path
             d="M 3132.52,4719.93 C 3132.52,4889.24 2995.28,5026.5 2825.95,5026.5 C 2656.64,5026.5 2519.38,4889.24 2519.38,4719.93 C 2519.38,4550.61 2656.64,4413.35 2825.95,4413.35 C 2995.28,4413.35 3132.52,4550.61 3132.52,4719.93 z"
             id="path45"
             style="fill:none;stroke:#000000;stroke-width:7.07818985;stroke-linecap:round;stroke-linejoin:round;stroke-miterlimit:500;stroke-dasharray:none;stroke-opacity:1" /></g></g></g></g></svg>