<?xml version="1.0" encoding="UTF-8" standalone="no"?>
<svg
   xmlns:dc="http://purl.org/dc/elements/1.1/"
   xmlns:cc="http://creativecommons.org/ns#"
   xmlns:rdf="http://www.w3.org/1999/02/22-rdf-syntax-ns#"
   xmlns:svg="http://www.w3.org/2000/svg"
   xmlns="http://www.w3.org/2000/svg"
   xmlns:sodipodi="http://sodipodi.sourceforge.net/DTD/sodipodi-0.dtd"
   xmlns:inkscape="http://www.inkscape.org/namespaces/inkscape"
   width="1370.6241"
   height="1370.624"
   viewBox="-50 -30 137.06243 137.0624"
   id="svg2"
   version="1.1"
   inkscape:version="0.48.4 r9939"
   sodipodi:docname="AJAX1.svg">
  <metadata
     id="metadata14">
    <rdf:RDF>
      <cc:Work
         rdf:about="">
        <dc:format>image/svg+xml</dc:format>
        <dc:type
           rdf:resource="http://purl.org/dc/dcmitype/StillImage" />
      </cc:Work>
    </rdf:RDF>
  </metadata>
  <defs
     id="defs12" />
  <sodipodi:namedview
     pagecolor="#ffffff"
     bordercolor="#666666"
     borderopacity="1"
     objecttolerance="10"
     gridtolerance="10"
     guidetolerance="10"
     inkscape:pageopacity="0"
     inkscape:pageshadow="2"
     inkscape:window-width="1280"
     inkscape:window-height="1004"
     id="namedview10"
     showgrid="false"
     fit-margin-top="0"
     fit-margin-left="0"
     fit-margin-right="0"
     fit-margin-bottom="0"
     inkscape:zoom="0.31109507"
     inkscape:cx="-104.02938"
     inkscape:cy="430.07266"
     inkscape:window-x="-8"
     inkscape:window-y="-8"
     inkscape:window-maximized="1"
     inkscape:current-layer="svg2"
     showguides="true"
     inkscape:guide-bbox="true" />
  <path
     style="font-size:medium;font-style:normal;font-variant:normal;font-weight:normal;font-stretch:normal;text-indent:0;text-align:start;text-decoration:none;line-height:normal;letter-spacing:normal;word-spacing:normal;text-transform:none;direction:ltr;block-progression:tb;writing-mode:lr-tb;text-anchor:start;baseline-shift:baseline;color:#000000;fill:#000000;fill-opacity:1;stroke:none;stroke-width:5;marker:none;visibility:visible;display:inline;overflow:visible;enable-background:accumulate;font-family:Sans;-inkscape-font-specification:Sans"
     d="m 85.043449,43.436758 c 2.691969,-2.691972 2.691969,-7.119135 0,-9.811107 L 23.436764,-27.981031 c -2.691972,-2.69197 -7.119134,-2.69197 -9.811107,0 l -61.606679,61.606682 c -2.69197,2.691972 -2.69197,7.119135 0,9.811107 l 61.60668,61.606672 c 2.691972,2.69197 7.119134,2.69197 9.811106,0 z"
     id="rect4054"
     inkscape:connector-curvature="0"
     sodipodi:nodetypes="sssssssss" />
  <path
     style="fill:#ffeb00;fill-opacity:1;stroke:none"
     d="m 15.386797,-26.206632 c 1.736669,-1.73667 4.552163,-1.73667 6.288831,0 l 61.59343,61.593424 c 1.73666,1.736667 1.73666,4.552161 -1e-5,6.28883 L 21.675627,103.26903 c -1.736669,1.73667 -4.552162,1.73667 -6.28883,1e-5 l -61.59342,-61.593416 c -1.73667,-1.736669 -1.73667,-4.552163 0,-6.288832 z"
     id="rect4054-7"
     inkscape:connector-curvature="0"
     sodipodi:nodetypes="sssssssss" />
  <path
     style="fill:#000000;fill-opacity:1;stroke:none"
     d="m 18.531206,-7.0423687 c -9.9411303,0 -18.0000003,8.058881 -18.0000003,18.0000027 l 0,55.147001 c 0,9.94113 8.05887,18.000001 18.0000003,18.000001 9.941135,0 18.000007,-8.058871 18.000007,-18.000001 l 0,-55.147001 c 0,-9.9411217 -8.058872,-18.0000027 -18.000007,-18.0000027 z"
     id="path3124-1"
     inkscape:connector-curvature="0"
     sodipodi:nodetypes="sssssss" />
  <path
     inkscape:connector-curvature="0"
     id="path4099"
     d="m 31.096426,10.95765 c 0,-6.9395807 -5.625633,-12.5652207 -12.56521,-12.5652207 -6.93959,0 -12.5652303,5.62564 -12.5652303,12.5652207 0,6.939581 5.6256403,12.565211 12.5652303,12.565211 6.939577,0 12.56521,-5.62563 12.56521,-12.565211 z"
     style="fill:#d40000;fill-opacity:1;stroke:none"
     sodipodi:nodetypes="sssss" />
  <path
     sodipodi:nodetypes="sssss"
     style="fill:#077251;fill-opacity:1;stroke:none"
     d="m 31.096426,66.104616 c 0,6.939581 -5.625633,12.56522 -12.56521,12.56522 -6.93959,0 -12.5652303,-5.625639 -12.5652303,-12.56522 0,-6.939579 5.6256403,-12.56521 12.5652303,-12.56521 6.939577,0 12.56521,5.625631 12.56521,12.56521 z"
     id="path4177"
     inkscape:connector-curvature="0" />
  <path
     inkscape:connector-curvature="0"
     id="path4190"
     d="m 31.096426,38.531141 c 0,6.93958 -5.625633,12.565221 -12.56521,12.565221 -6.93959,0 -12.5652303,-5.625641 -12.5652303,-12.565221 0,-6.93958 5.6256403,-12.56521 12.5652303,-12.56521 6.939577,0 12.56521,5.62563 12.56521,12.56521 z"
     style="fill:#f5ae14;fill-opacity:1;stroke:none"
     sodipodi:nodetypes="sssss" />
</svg>
